<svg width="194" height="194" viewBox="0 0 194 194" fill="none" xmlns="http://www.w3.org/2000/svg">
<g id="confirmed" filter="url(#filter0_d)">
<path id="shape" d="M189.974 92.99C189.973 111.381 184.519 129.359 174.301 144.65C164.083 159.942 149.56 171.86 132.569 178.897C115.577 185.934 96.8808 187.775 78.8432 184.187C60.8057 180.598 44.2372 171.742 31.2331 158.737C18.2291 145.732 9.37352 129.163 5.78618 111.125C2.19884 93.0871 4.04088 74.3906 11.0794 57.3997C18.1179 40.4087 30.0368 25.8865 45.3287 15.6695C60.6207 5.45245 78.5989 -0.000593286 96.99 4.84145e-08C109.201 0.000394008 121.293 2.40598 132.574 7.07938C143.856 11.7528 154.107 18.6025 162.741 27.2374C171.375 35.8723 178.224 46.1234 182.897 57.4052C187.57 68.6871 189.974 80.7788 189.974 92.99V92.99ZM86.241 142.21L155.218 73.233C155.776 72.6763 156.219 72.0149 156.521 71.2867C156.824 70.5586 156.979 69.7779 156.979 68.9895C156.979 68.2011 156.824 67.4205 156.521 66.6923C156.219 65.9641 155.776 65.3027 155.218 64.746L146.731 56.321C146.175 55.7631 145.515 55.3205 144.788 55.0184C144.061 54.7164 143.281 54.5609 142.494 54.5609C141.706 54.5609 140.926 54.7164 140.199 55.0184C139.472 55.3205 138.812 55.7631 138.256 56.321L81.998 112.58L55.73 86.25C54.6024 85.1286 53.0768 84.4992 51.4865 84.4992C49.8962 84.4992 48.3706 85.1286 47.243 86.25L38.756 94.787C37.6347 95.9146 37.0052 97.4403 37.0052 99.0305C37.0052 100.621 37.6347 102.146 38.756 103.274L77.756 142.26C78.3127 142.818 78.9741 143.261 79.7023 143.563C80.4305 143.866 81.2111 144.021 81.9995 144.021C82.7879 144.021 83.5686 143.866 84.2967 143.563C85.0249 143.261 85.6863 142.818 86.243 142.26L86.241 142.21Z" fill="#3F7DCE"/>
</g>
<defs>
<filter id="filter0_d" x="0" y="0" width="194" height="194" filterUnits="userSpaceOnUse" color-interpolation-filters="sRGB">
<feFlood flood-opacity="0" result="BackgroundImageFix"/>
<feColorMatrix in="SourceAlpha" type="matrix" values="0 0 0 0 0 0 0 0 0 0 0 0 0 0 0 0 0 0 127 0"/>
<feOffset dy="4"/>
<feGaussianBlur stdDeviation="2"/>
<feColorMatrix type="matrix" values="0 0 0 0 0 0 0 0 0 0 0 0 0 0 0 0 0 0 0.25 0"/>
<feBlend mode="normal" in2="BackgroundImageFix" result="effect1_dropShadow"/>
<feBlend mode="normal" in="SourceGraphic" in2="effect1_dropShadow" result="shape"/>
</filter>
</defs>
</svg>
