<svg width="933" height="647" viewBox="0 0 933 647" fill="none" xmlns="http://www.w3.org/2000/svg">
<g id="undraw_hey_email_liaa 1" clip-path="url(#clip0)">
<path id="Vector" d="M27.6039 642.525C15.1327 639.157 -0.0447891 625.147 3.20455 605.891C4.81606 596.341 11.0012 590.159 17.4145 586.162C26.2854 580.633 36.3883 578.549 46.1243 578.023C57.3542 577.416 68.5716 578.947 79.7176 580.565C90.721 582.164 101.725 583.595 112.778 584.469C156.027 587.861 199.54 584.63 241.814 574.887C252.248 572.48 262.619 569.655 272.927 566.413C282.696 563.538 292.246 559.969 301.506 555.732C313.762 549.848 333.693 538.398 332.068 517.193C331.206 505.95 324.585 496.97 317.906 490.713C309.831 483.149 300.486 478.172 291.334 473.338C248.764 450.857 206.11 428.642 163.498 406.296C153.553 401.081 143.542 396.005 133.89 389.893C124.853 384.171 115.859 377.525 108.587 368.334C102.235 360.307 96.5595 349.531 96.7598 337.484C96.9259 327.494 101.472 319.017 107.04 312.681C120.825 296.994 140.326 290.634 157.951 287.303C179.847 283.164 202.061 283.185 223.972 279.189C241.664 275.961 260.567 269.732 274.956 255.133C281.042 249.195 285.347 241.674 287.384 233.418C289.222 224.771 288.329 215.767 284.829 207.65C280.931 198.34 274.714 190.924 268.176 184.852C260.667 177.973 252.15 172.283 242.92 167.978C223.487 158.718 203.053 153.896 183.147 146.79C173.385 143.305 163.524 139.483 154.459 133.497C146.78 128.425 138.414 121.589 134.141 111.423C125.326 90.4483 146.356 77.9476 158.273 73.2126C166.373 70.1405 174.716 67.7522 183.214 66.0726C185.011 65.6868 184.249 62.1001 182.46 62.484C173.515 64.228 164.748 66.7879 156.269 70.1316C149.083 73.1173 141.668 77.0411 136.024 83.7932C133.454 86.8417 131.554 90.3967 130.447 94.2272C129.34 98.0578 129.051 102.078 129.598 106.028C131.093 116.092 137.592 123.846 143.696 129.463C151.768 136.891 160.971 141.741 170.302 145.695C180.129 149.86 190.165 153.105 200.197 156.289C220.244 162.65 241.19 168.319 259.287 181.855C271.946 191.324 289.144 209.077 284.933 231.084C283.063 240.852 277.387 248.49 271.261 254.107C264.068 260.51 255.772 265.554 246.777 268.995C206.675 285.134 162.539 273.592 123.47 295.513C110.186 302.966 94.051 316.535 93.9211 337.886C93.8537 348.977 98.2995 359.15 103.796 367.19C110.379 376.82 118.904 383.941 127.577 389.893C136.71 395.93 146.193 401.421 155.976 406.335C166.663 411.949 177.353 417.555 188.045 423.153L252.929 457.179L285.167 474.085C295.006 479.244 305.098 484.194 314.044 491.768C321.369 497.97 330.023 508.144 329.275 520.778C328.682 530.811 322.017 538.052 315.926 542.892C308.039 549.161 299.18 553.215 290.365 556.584C280.198 560.47 269.863 563.694 259.509 566.592C238.299 572.52 216.652 576.757 194.772 579.263C172.946 581.776 150.959 582.596 129.007 581.715C117.915 581.268 106.841 580.381 95.7838 579.053C84.3862 577.68 73.0374 575.565 61.6105 574.627C51.2745 573.778 40.8391 573.975 30.6602 576.703C22.1612 578.98 13.1821 583.04 6.7306 590.962C1.9754 597.009 -0.405825 604.586 0.0349799 612.267C0.471772 619.931 3.20453 627.287 7.87792 633.378C12.6249 639.599 19.2949 644.077 26.8502 646.114C28.6317 646.595 29.3936 643.009 27.6041 642.526L27.6039 642.525Z" fill="#E6E6E6"/>
<path id="Vector_2" d="M348.161 644.224H24.1287V646.465H348.161V644.224Z" fill="#3F3D56"/>
<path id="Vector_3" d="M323.2 538.67C334.891 538.67 344.368 529.193 344.368 517.502C344.368 505.812 334.891 496.334 323.2 496.334C311.509 496.334 302.032 505.812 302.032 517.502C302.032 529.193 311.509 538.67 323.2 538.67Z" fill="#E6E6E6"/>
<path id="Vector_4" d="M103.581 347.316C115.272 347.316 124.749 337.839 124.749 326.148C124.749 314.458 115.272 304.98 103.581 304.98C91.8899 304.98 82.4126 314.458 82.4126 326.148C82.4126 337.839 91.8899 347.316 103.581 347.316Z" fill="#E6E6E6"/>
<path id="Vector_5" d="M188.168 85.3362C199.859 85.3362 209.336 75.8589 209.336 64.1681C209.336 52.4773 199.859 43 188.168 43C176.477 43 167 52.4773 167 64.1681C167 75.8589 176.477 85.3362 188.168 85.3362Z" fill="#E6E6E6"/>
<path id="Vector_6" d="M142.981 560.139C142.981 560.139 124.683 584.93 120.551 589.061C116.419 593.193 115.239 608.54 115.239 608.54L122.322 625.067L118.19 633.331L86.3163 601.457L120.551 550.695L142.981 560.139Z" fill="#FFB8B8"/>
<path id="Vector_7" d="M220.895 408.443C220.895 408.443 154.664 610.256 147.581 614.978C140.498 619.701 105.615 590.062 95.5806 582.978C85.5463 575.895 171.315 441.147 171.315 441.147C157.739 396.878 164.23 386.603 164.23 386.603L220.895 408.443Z" fill="#2F2E41"/>
<path id="Vector_8" d="M117.01 628.609C117.01 628.609 117.01 621.525 119.289 617.991C121.569 614.456 125.863 630.379 125.863 630.379C125.863 630.379 151.835 637.462 140.03 645.136C128.224 652.809 93.3993 628.608 83.3649 622.116C73.3306 615.623 76.8721 607.949 82.1844 602.637L92.5139 592.308L117.01 628.609Z" fill="#2F2E41"/>
<path id="Vector_9" d="M242.144 573.124C242.144 573.124 247.456 588.471 252.178 603.227C256.9 617.984 279.33 625.657 279.33 625.657L283.462 636.282L271.067 642.184L235.061 633.331C235.061 633.331 236.241 621.525 236.241 617.394C236.241 613.262 217.353 578.437 217.353 578.437L242.144 573.124Z" fill="#FFB8B8"/>
<path id="Vector_10" d="M195.514 231.956C209.205 231.956 220.305 220.857 220.305 207.165C220.305 193.473 209.205 182.374 195.514 182.374C181.822 182.374 170.723 193.473 170.723 207.165C170.723 220.857 181.822 231.956 195.514 231.956Z" fill="#FFB8B8"/>
<path id="Vector_11" d="M181.938 220.151C181.938 223.692 164.23 250.844 164.23 250.844L190.171 262.422L202.007 228.414L181.938 220.151Z" fill="#FFB8B8"/>
<path id="Vector_12" d="M205.548 349.417C210.418 349.392 215.104 351.278 218.6 354.669C222.095 358.06 224.122 362.687 224.246 367.555L225.027 398.408L229.158 405.491C229.158 405.491 254.581 595.076 254.581 600.978C254.581 606.881 229.337 623.159 214.581 621.978C207.281 621.394 190.913 554.329 184.419 517.612C179.796 491.472 175.285 463.026 170.753 442.026C169.24 434.454 167.259 426.984 164.82 419.657C151.835 383.652 174.265 349.417 174.265 349.417H205.548V349.417Z" fill="#2F2E41"/>
<path id="Vector_13" d="M274.313 633.626C274.313 633.626 277.56 634.511 274.018 633.331C270.476 632.15 271.657 625.657 271.803 622.357C271.948 619.057 306.482 629.789 306.482 638.053C306.482 646.316 262.213 646.316 249.227 645.136C236.241 643.955 233.29 645.136 231.519 636.872C229.749 628.608 236.537 617.098 236.537 617.098L274.313 633.626Z" fill="#2F2E41"/>
<path id="Vector_14" d="M176.609 365.868C181.225 365.868 191.153 354.011 196.348 359.207C200.127 362.986 203.334 366.616 206.163 369.819C214.284 379.012 221.384 387.438 226.318 381.393C227.064 380.479 224.556 382.589 226.647 381.167C227.514 380.576 228.176 379.731 228.541 378.747C228.907 377.764 228.957 376.691 228.686 375.678C221.527 353.25 217.069 331.765 222.762 313.819C223.184 312.394 223.386 310.913 223.36 309.427C223.361 309.21 223.371 308.992 223.391 308.775C223.692 305.463 223.616 293.601 210.026 280.011C197.605 267.59 195.222 259.958 194.908 256.514C194.834 255.712 174.812 234.938 174.812 234.938C173.764 234.498 172.597 234.426 171.502 234.733C170.408 235.04 169.449 235.709 168.783 236.63L162.37 245.449C155.398 259.252 152.356 274.706 153.574 290.122C155.311 310.132 158.325 349.703 160.801 363.977C161.006 365.278 161.696 366.453 162.732 367.266C163.446 367.819 164.297 368.168 165.193 368.274C166.09 368.38 166.998 368.24 167.822 367.869C170.576 366.586 173.571 365.904 176.609 365.868V365.868Z" fill="#3F7DCE"/>
<path id="Vector_15" d="M201.464 208.111L197.013 203.408C197.384 228.173 220.748 241.991 220.748 241.991L168.581 236.79L167.263 230.221L164.537 235.63L158.168 234.017L156.336 230.012L152.405 232.151L160.47 200.305C168.435 169.925 192.723 174.382 192.723 174.382C226.729 163.745 222.561 196.181 222.561 196.181L201.464 208.111Z" fill="#2F2E41"/>
<path id="Vector_16" opacity="0.2" d="M181.595 525.642L172.134 441.966L183.767 519.477L181.595 525.642Z" fill="black"/>
<path id="Vector_17" d="M164.756 187.817C172 187.817 177.873 181.944 177.873 174.699C177.873 167.455 172 161.582 164.756 161.582C157.511 161.582 151.638 167.455 151.638 174.699C151.638 181.944 157.511 187.817 164.756 187.817Z" fill="#2F2E41"/>
<path id="Vector_18" d="M166.839 185.326C167.112 185.325 167.383 185.332 167.66 185.315L167.687 185.313C171.158 185.084 174.395 183.487 176.688 180.872C178.981 178.257 180.142 174.839 179.915 171.368C179.688 167.898 178.093 164.66 175.479 162.365C172.865 160.071 169.447 158.909 165.976 159.134C165.7 159.152 165.432 159.193 165.161 159.228C168.496 159.218 171.71 160.481 174.146 162.759C176.583 165.038 178.058 168.159 178.272 171.488C178.486 174.816 177.423 178.101 175.298 180.673C173.173 183.244 170.148 184.908 166.839 185.326V185.326Z" fill="#2F2E41"/>
<path id="Vector_19" d="M197.549 214.871C199.813 214.871 201.649 212.302 201.649 209.132C201.649 205.963 199.813 203.394 197.549 203.394C195.285 203.394 193.45 205.963 193.45 209.132C193.45 212.302 195.285 214.871 197.549 214.871Z" fill="#FFB8B8"/>
<path id="Vector_20" d="M246.644 399.454L263.495 411.38C264.962 412.418 266.175 413.775 267.043 415.349C267.91 416.923 268.41 418.673 268.505 420.467C268.6 422.262 268.287 424.055 267.59 425.711C266.892 427.367 265.829 428.844 264.48 430.031C263.18 431.174 261.647 432.02 259.987 432.51C258.327 432.999 256.58 433.121 254.868 432.866C253.156 432.611 251.52 431.986 250.075 431.034C248.629 430.082 247.409 428.827 246.499 427.355L236.747 411.588L202.431 359.727L216.65 349.265L246.644 399.454Z" fill="#FEB8B8"/>
<path id="Vector_21" opacity="0.2" d="M219.581 352.978C219.648 362.169 210.565 370.15 197.735 371.305L168.303 308.77C165.214 302.206 164.057 294.899 164.967 287.702C165.878 280.505 168.818 273.716 173.444 268.128V268.128L203.154 304.234C204.077 319.93 210.773 336.198 219.581 352.978Z" fill="black"/>
<path id="Vector_22" d="M219.581 348.978C219.648 358.169 214.565 364.15 201.735 365.305L172.303 302.77C169.214 296.206 168.057 288.899 168.967 281.702C169.878 274.505 172.818 267.716 177.444 262.128L207.154 298.234C208.077 313.93 210.773 332.198 219.581 348.978Z" fill="#3F7DCE"/>
<path id="Path 1" d="M926.369 229.834H894.457C891.994 229.944 889.613 230.76 887.599 232.184C885.585 233.608 884.022 235.58 883.097 237.866L875.86 258.706L870.071 274.843L861.967 298.216C861.12 301.006 859.98 303.698 858.566 306.248C857.1 303.689 855.934 300.97 855.092 298.144L847.35 274.915C845.83 270.429 843.297 263.193 841.705 258.706L834.469 237.866C833.538 235.569 831.964 233.589 829.936 232.165C827.908 230.74 825.512 229.931 823.036 229.834H700.309C699.188 229.834 698.078 230.054 697.042 230.484C696.006 230.913 695.065 231.542 694.272 232.335C693.479 233.127 692.85 234.069 692.421 235.105C691.992 236.141 691.771 237.251 691.771 238.372V287.072C691.771 289.356 690.863 291.546 689.249 293.161C687.634 294.776 685.443 295.683 683.16 295.683H647.557C645.279 295.664 643.1 294.751 641.489 293.14C639.879 291.529 638.965 289.35 638.946 287.072V238.372C638.948 236.169 638.098 234.05 636.575 232.459C635.051 230.868 632.971 229.927 630.769 229.834H601.101C598.829 229.833 596.65 230.731 595.037 232.33C593.424 233.929 592.509 236.101 592.49 238.372V260.877V372.17V398.148C592.509 400.419 593.424 402.591 595.037 404.19C596.65 405.79 598.829 406.687 601.101 406.687H630.769C631.891 406.687 633.001 406.466 634.037 406.037C635.073 405.608 636.014 404.979 636.807 404.186C637.6 403.393 638.229 402.452 638.658 401.416C639.087 400.38 639.308 399.27 639.308 398.148V345.034C639.306 342.812 640.163 340.675 641.701 339.07C643.238 337.465 645.337 336.517 647.557 336.423H683.16C685.424 336.404 687.604 337.285 689.218 338.873C690.833 340.461 691.751 342.625 691.77 344.889L691.771 344.962V398.076C691.771 400.34 692.67 402.512 694.272 404.114C695.873 405.715 698.045 406.615 700.309 406.615H800.386C802.651 406.615 804.823 405.715 806.424 404.114C808.026 402.512 808.925 400.34 808.925 398.076V376.078C808.925 373.813 808.026 371.641 806.424 370.04C804.823 368.439 802.651 367.539 800.386 367.539H747.273C745.001 367.52 742.83 366.604 741.23 364.991C739.631 363.379 738.734 361.199 738.734 358.928V344.455C738.734 342.184 739.631 340.005 741.23 338.392C742.83 336.779 745.001 335.863 747.273 335.844H779.329C781.594 335.844 783.766 334.945 785.367 333.343C786.968 331.742 787.868 329.57 787.868 327.306V305.307C787.868 303.043 786.968 300.871 785.367 299.27C783.766 297.668 781.594 296.769 779.329 296.769H747.273C745.001 296.75 742.83 295.834 741.23 294.221C739.631 292.608 738.734 290.429 738.734 288.158V277.593C738.715 275.328 739.596 273.149 741.183 271.534C742.771 269.919 744.935 269.001 747.2 268.982L747.273 268.982H790.69C793.211 269.117 795.652 269.91 797.772 271.281C799.892 272.652 801.617 274.553 802.774 276.797L830.923 337.943C833.131 343.123 834.357 348.669 834.541 354.297V398.148C834.541 400.413 835.441 402.585 837.042 404.186C838.644 405.787 840.816 406.687 843.08 406.687H872.749C875.013 406.706 877.193 405.825 878.807 404.237C880.422 402.65 881.34 400.486 881.359 398.221L881.36 398.148V354.297C881.555 348.677 882.756 343.138 884.906 337.943L931.362 237.576C931.885 236.759 932.162 235.808 932.161 234.837C932.159 233.867 931.878 232.917 931.352 232.101C930.826 231.286 930.077 230.638 929.194 230.236C928.31 229.834 927.33 229.694 926.369 229.834Z" fill="url(#paint0_linear)"/>
<g id="hand">
<path id="Path 2" d="M532.171 259.936C520.802 263.015 510.492 269.146 502.358 277.665C492.878 244.378 472.472 194.014 452.572 185.765C450.469 184.787 448.162 184.33 445.844 184.431C443.527 184.531 441.268 185.188 439.258 186.344C426.811 193.58 418.707 216.881 425.798 261.022C398.445 210.947 388.894 211.019 384.479 210.947C382.359 210.977 380.295 211.631 378.544 212.828C376.794 214.025 375.435 215.712 374.638 217.677C371.671 224.262 365.738 244.813 380.21 289.026C362.771 265.146 357.416 262.107 351.265 262.397C349.297 262.513 347.397 263.159 345.766 264.267C344.135 265.376 342.835 266.905 342.003 268.692C336.793 278.533 337.372 303.281 353.581 340.186C348.029 335.287 341 332.384 333.609 331.937C331.618 332.076 329.695 332.712 328.014 333.787C326.332 334.861 324.947 336.34 323.985 338.088C317.4 350.172 331.221 384.11 348.298 407.121C362.12 426.008 389.834 455.025 430.068 455.025C435.701 455.017 441.321 454.484 446.856 453.433C448.781 453.092 450.491 452.001 451.612 450.399C452.733 448.798 453.171 446.816 452.832 444.891C452.492 442.966 451.402 441.255 449.801 440.133C448.2 439.011 446.219 438.571 444.294 438.91C444.207 438.925 444.12 438.942 444.034 438.961C410.602 445.473 385.42 427.093 370.152 410.594C347.358 385.919 337.372 356.25 336.793 347.205C341.569 349.159 355.318 357.264 382.092 391.563C383.224 393.147 384.939 394.215 386.859 394.534C388.779 394.853 390.748 394.396 392.331 393.264C393.914 392.131 394.983 390.417 395.302 388.496C395.621 386.576 395.164 384.608 394.031 383.024C356.403 325.931 352.712 291.341 353.943 279.691C365.014 290.98 392.656 332.371 413.497 363.631C414.544 365.215 416.164 366.333 418.016 366.751C419.869 367.168 421.811 366.854 423.437 365.873C425.063 364.891 426.247 363.32 426.741 361.486C427.235 359.652 427.001 357.699 426.088 356.033C382.67 276.435 384.19 240.254 386.723 228.097C393.235 234.682 410.53 257.621 446.928 336.64C447.74 338.348 449.177 339.678 450.943 340.357C452.708 341.035 454.666 341.009 456.413 340.284C458.159 339.56 459.561 338.192 460.328 336.463C461.094 334.734 461.167 332.777 460.532 330.996C425.219 235.116 440.56 202.625 446.422 198.935C454.02 198.935 475.366 235.55 488.681 283.526C489.477 286.493 490.273 289.388 490.997 292.21C489.129 295.493 487.67 298.992 486.655 302.63C479.419 329.187 472.182 389.465 486.148 406.036C487.538 407.771 489.336 409.136 491.381 410.007C493.427 410.879 495.657 411.229 497.871 411.029C500.675 410.724 503.376 409.8 505.779 408.323C508.182 406.846 510.226 404.854 511.765 402.49C524.718 383.603 517.119 336.206 506.772 294.743C513.82 284.772 524.014 277.459 535.717 273.975C538.217 273.189 540.885 273.097 543.433 273.708C545.982 274.32 548.317 275.613 550.189 277.448C556.123 284.105 566.471 308.998 535.065 396.773C534.742 397.686 534.602 398.653 534.653 399.619C534.703 400.585 534.944 401.532 535.36 402.406C536.202 404.17 537.709 405.528 539.552 406.18C541.394 406.833 543.42 406.727 545.184 405.885C546.949 405.044 548.306 403.536 548.959 401.694C573.996 331.72 577.904 286.638 561.188 267.679C557.551 263.816 552.908 261.045 547.782 259.677C542.655 258.309 537.249 258.399 532.171 259.936ZM499.608 394.313C499.066 395.285 498.193 396.03 497.148 396.412C491.72 389.971 491.72 351.836 497.654 320.576C508.87 374.63 502.358 390.478 499.608 394.313Z" fill="url(#paint1_linear)"/>
</g>
</g>
<defs>
<linearGradient id="paint0_linear" x1="327.546" y1="318.237" x2="935.897" y2="318.237" gradientUnits="userSpaceOnUse">
<stop stop-color="#3F7DCE"/>
<stop offset="0.99" stop-color="#8D28C4"/>
</linearGradient>
<linearGradient id="paint1_linear" x1="139411" y1="-8.97542e+06" x2="290886" y2="-8.97542e+06" gradientUnits="userSpaceOnUse">
<stop stop-color="#3F7DCE"/>
<stop offset="0.99" stop-color="#6C139C"/>
</linearGradient>
<clipPath id="clip0">
<rect width="932.161" height="646.623" fill="white"/>
</clipPath>
</defs>
</svg>
