<svg width="752" height="578" viewBox="0 0 752 578" fill="none" xmlns="http://www.w3.org/2000/svg">
<g id="no_results" clip-path="url(#clip0)">
<g id="wool">
<g id="Group" opacity="0.5">
<path id="Vector" opacity="0.5" d="M694.981 520.992C726.472 520.992 752 495.464 752 463.973C752 432.483 726.472 406.954 694.981 406.954C663.49 406.954 637.962 432.483 637.962 463.973C637.962 495.464 663.49 520.992 694.981 520.992Z" fill="url(#paint0_linear)"/>
</g>
<path id="Vector_2" d="M694.981 517.353C724.462 517.353 748.36 493.454 748.36 463.973C748.36 434.493 724.462 410.594 694.981 410.594C665.5 410.594 641.601 434.493 641.601 463.973C641.601 493.454 665.5 517.353 694.981 517.353Z" fill="#F55F44"/>
<g id="Group_2" opacity="0.5">
<path id="Vector_3" opacity="0.5" d="M540.103 500.402C532.042 501.114 523.179 497.11 521.439 489.121C520.434 484.507 522.025 479.996 523.563 475.633C525.248 470.852 526.705 466.722 524.6 463.322C523.642 461.773 521.968 460.599 520.301 459.562C518.13 458.211 515.799 456.962 513.545 455.756C509.651 453.67 505.624 451.513 502.044 448.653C495.009 443.032 491.451 435.533 492.526 428.595C493.456 422.599 497.51 418.007 501.43 413.565C505.451 409.009 509.248 404.707 509.159 399.44C509.039 392.277 501.717 387.133 495.258 382.596L494.25 381.886C486.367 376.326 478.796 366.677 483.399 357.782C485.006 354.677 487.688 352.684 490.281 350.756C492.028 349.575 493.623 348.182 495.027 346.608C499.766 340.738 497.347 332.043 496.087 328.578C495.13 325.943 493.877 323.314 492.666 320.773C490.878 317.018 489.028 313.135 487.954 308.946L487.777 308.259C485.189 298.177 485.191 297.801 487.927 288.127L488.269 286.919L492.355 288.072L492.013 289.283C489.537 298.038 489.537 298.038 491.89 307.204L492.067 307.891C493.039 311.681 494.72 315.21 496.5 318.946C497.754 321.579 499.051 324.301 500.078 327.127C503.261 335.884 502.624 343.957 498.33 349.275C496.707 351.133 494.853 352.776 492.814 354.164C490.506 355.879 488.326 357.5 487.17 359.734C483.59 366.651 491.474 374.732 496.697 378.416L497.699 379.121C504.626 383.988 513.248 390.045 513.405 399.368C513.521 406.281 508.993 411.412 504.613 416.374C500.935 420.542 497.462 424.478 496.722 429.246C495.734 435.622 500.192 441.738 504.695 445.336C507.971 447.954 511.652 449.925 515.55 452.012C517.864 453.251 520.256 454.533 522.545 455.957C524.65 457.268 526.793 458.796 528.211 461.088C531.385 466.217 529.444 471.722 527.567 477.045C526.165 481.024 524.84 484.781 525.588 488.217C526.94 494.426 535.085 497.252 541.547 495.905C546.835 494.803 551.49 491.898 556.417 488.824C558.01 487.829 559.658 486.801 561.318 485.847C570.376 480.644 578.584 479.373 585.055 482.169C587.092 483.129 589.021 484.306 590.807 485.679C592.197 486.737 593.673 487.678 595.219 488.492C598.736 490.027 602.703 490.18 606.328 488.921C609.953 487.662 612.971 485.083 614.78 481.698C615.091 481.05 615.372 480.354 615.669 479.617C616.611 477.277 617.68 474.625 620.119 472.961C622.673 471.22 625.82 471.246 628.118 471.265L651.857 471.466L651.821 475.712L628.082 475.511C625.83 475.492 623.858 475.551 622.511 476.469C621.137 477.406 620.394 479.251 619.607 481.203C619.298 481.971 618.979 482.764 618.607 483.537C616.309 487.941 612.415 491.302 607.721 492.932C603.028 494.562 597.889 494.339 593.355 492.307C591.596 491.392 589.917 490.33 588.336 489.133C586.793 487.939 585.128 486.911 583.369 486.067C576.81 483.23 568.907 486.384 563.434 489.529C561.841 490.444 560.226 491.452 558.665 492.426C553.639 495.563 548.442 498.805 542.413 500.062C541.65 500.22 540.879 500.334 540.103 500.402Z" fill="url(#paint1_linear)"/>
</g>
<path id="Vector_4" opacity="0.2" d="M700.788 426.314C700.788 426.314 730.547 428.861 734.995 472.313" stroke="black" stroke-miterlimit="10"/>
<path id="Vector_5" opacity="0.2" d="M653.69 482.54C653.69 482.54 639.611 447.247 685.584 423.09" stroke="black" stroke-miterlimit="10"/>
<path id="Vector_6" opacity="0.2" d="M665.081 473.618C665.081 473.618 658.593 455.313 672.791 443.707" stroke="black" stroke-miterlimit="10"/>
<path id="Vector_7" opacity="0.2" d="M692.126 441.999C692.126 441.999 704.461 450.652 700.554 475.355" stroke="black" stroke-miterlimit="10"/>
<path id="Vector_8" opacity="0.2" d="M714.925 417.454C714.925 417.454 735.221 426.622 742.991 459.427" stroke="black" stroke-miterlimit="10"/>
<path id="Vector_9" opacity="0.2" d="M685.317 420.069C685.317 420.069 697.082 415.376 705.524 421.329" stroke="black" stroke-miterlimit="10"/>
<path id="Vector_10" opacity="0.2" d="M676.794 489.024C676.794 489.024 688.187 500.806 728.758 484.434" stroke="black" stroke-miterlimit="10"/>
<path id="Vector_11" opacity="0.2" d="M663.228 425.065C663.228 425.065 647.874 437.383 648.09 460.504" stroke="black" stroke-miterlimit="10"/>
<path id="Vector_12" opacity="0.2" d="M661.545 481.846C661.545 481.846 658.561 489.417 666.399 495.423" stroke="black" stroke-miterlimit="10"/>
<path id="Vector_13" opacity="0.2" d="M733.468 489.498C733.468 489.498 729.311 504.48 720.692 503.415" stroke="black" stroke-miterlimit="10"/>
<path id="Vector_14" opacity="0.2" d="M708.033 449.728C708.033 449.728 714.111 456.498 711.233 465.278" stroke="black" stroke-miterlimit="10"/>
<path id="Vector_15" opacity="0.2" d="M677.874 453.001C677.874 453.001 673.29 463.149 677.005 470.737" stroke="black" stroke-miterlimit="10"/>
<path id="Vector_16" opacity="0.2" d="M684.521 452.414C684.521 452.414 689.765 463.521 686.069 469.937" stroke="black" stroke-miterlimit="10"/>
<path id="Vector_17" d="M541.151 498.483C533.091 499.195 524.228 495.191 522.488 487.202C521.483 482.587 523.073 478.076 524.611 473.714C526.297 468.932 527.753 464.803 525.649 461.402C524.691 459.854 523.016 458.68 521.35 457.643C519.178 456.291 516.848 455.043 514.594 453.836C510.7 451.751 506.672 449.594 503.093 446.734C496.057 441.113 492.499 433.614 493.575 426.675C494.504 420.68 498.558 416.087 502.479 411.645C506.499 407.09 510.297 402.787 510.208 397.52C510.088 390.357 502.766 385.214 496.306 380.676L495.298 379.967C487.416 374.407 479.844 364.758 484.448 355.863C486.055 352.757 488.736 350.764 491.329 348.837C493.077 347.656 494.671 346.262 496.075 344.688C500.814 338.818 498.396 330.124 497.136 326.658C496.178 324.024 494.926 321.395 493.715 318.853C491.926 315.098 490.076 311.215 489.002 307.027L488.826 306.34C486.237 296.258 486.24 295.881 488.976 286.207L489.317 285L493.404 286.152L493.062 287.363C490.585 296.119 490.585 296.119 492.939 305.284L493.115 305.972C494.087 309.762 495.768 313.291 497.548 317.027C498.802 319.659 500.099 322.382 501.127 325.208C504.31 333.964 503.673 342.038 499.379 347.356C497.755 349.213 495.901 350.856 493.862 352.245C491.555 353.96 489.375 355.58 488.219 357.814C484.639 364.732 492.523 372.813 497.746 376.497L498.747 377.202C505.675 382.069 514.297 388.125 514.453 397.449C514.57 404.362 510.041 409.493 505.662 414.455C501.984 418.622 498.51 422.558 497.771 427.326C496.782 433.703 501.241 439.819 505.743 443.417C509.019 446.034 512.701 448.006 516.599 450.093C518.912 451.332 521.304 452.613 523.594 454.038C525.699 455.348 527.842 456.877 529.26 459.168C532.433 464.297 530.493 469.802 528.616 475.126C527.213 479.104 525.888 482.862 526.637 486.298C527.989 492.507 536.133 495.332 542.596 493.986C547.884 492.884 552.538 489.979 557.465 486.905C559.059 485.91 560.707 484.882 562.367 483.928C571.425 478.725 579.632 477.454 586.103 480.25C588.141 481.21 590.069 482.387 591.855 483.76C593.246 484.818 594.721 485.758 596.267 486.573C599.785 488.108 603.751 488.261 607.377 487.002C611.002 485.743 614.02 483.164 615.829 479.779C616.14 479.131 616.42 478.434 616.717 477.698C617.66 475.358 618.728 472.705 621.167 471.042C623.722 469.3 626.868 469.326 629.167 469.346L652.906 469.547L652.87 473.793L629.131 473.591C626.879 473.573 624.906 473.632 623.559 474.55C622.185 475.487 621.442 477.331 620.656 479.284C620.347 480.051 620.027 480.845 619.656 481.617C617.357 486.022 613.463 489.383 608.77 491.013C604.076 492.643 598.938 492.419 594.404 490.388C592.644 489.472 590.965 488.411 589.385 487.213C587.841 486.02 586.177 484.992 584.418 484.148C577.858 481.311 569.956 484.465 564.482 487.61C562.889 488.525 561.275 489.532 559.713 490.507C554.687 493.643 549.49 496.886 543.462 498.142C542.699 498.301 541.927 498.414 541.151 498.483Z" fill="#F55F44"/>
</g>
<g id="box-rear-closing">
<path id="Vector_18" d="M319.09 179.577L430.68 86.8474L642.54 141.207L530.96 230.597L319.09 179.577Z" fill="#E0E0E0"/>
<path id="Vector_19" d="M2.05005 144.077L110.76 230.597L322.62 179.577L215.03 88.6174L2.05005 144.077Z" fill="#E0E0E0"/>
<path id="Vector_20" opacity="0.05" d="M0.290039 142.317L111.64 230.597L323.51 179.577L213.26 86.8474L0.290039 142.317Z" fill="black"/>
</g>
<g id="box-rear-walls">
<path id="Vector_21" d="M532.73 228.837L320.86 177.807V577.137L532.73 521.677V228.837Z" fill="#E0E0E0"/>
<path id="Vector_22" opacity="0.1" d="M532.73 228.837L320.86 177.807V577.137L532.73 521.677V228.837Z" fill="black"/>
<path id="Vector_23" d="M108.99 228.837L320.86 177.807V577.137L108.99 522.787V228.837Z" fill="#E0E0E0"/>
<path id="Vector_24" opacity="0.17" d="M108.99 227.067L320.86 176.047V577.137L108.99 522.787V227.067Z" fill="black"/>
</g>
<g id="cat">
<g id="cat-tail">
<path id="Vector_25" d="M426.198 265.404C434.482 259.76 440.683 251.585 446.254 243.251C457.299 226.727 466.792 207.235 463.289 187.671C462.009 180.525 459.049 173.807 456.114 167.167C450.188 153.765 444.179 140.22 435.272 128.584C425.458 115.794 412.491 105.772 397.641 99.4983C395.421 98.5305 392.927 98.3994 390.618 99.1295C386.649 100.461 386.354 103.44 386.452 106.204C387.049 122.967 399.701 136.384 409.809 149.771C419.938 163.192 428.075 178.007 433.967 193.755C436.465 200.438 438.559 207.818 436.359 214.604C435.011 218.761 432.181 222.246 429.409 225.624C425.264 230.677 420.616 236.046 414.219 237.38C407.668 238.746 399.41 234.972 393.322 238.301C387.298 241.595 384.794 252.903 386.311 259.386C390.42 276.947 415.107 272.96 426.198 265.404Z" fill="#FFD180"/>
<path id="Vector_26" opacity="0.1" d="M436.359 214.604C435.011 218.761 432.18 222.246 429.409 225.624C426.562 229.095 423.462 232.683 419.736 235.042C425.41 233.267 429.69 228.369 433.521 223.699C436.292 220.321 439.123 216.836 440.471 212.679C442.671 205.893 440.577 198.513 438.078 191.83C432.186 176.082 424.05 161.267 413.921 147.846C403.813 134.459 391.16 121.042 390.564 104.278C390.495 102.336 390.649 100.3 392.107 98.7918C391.602 98.8618 391.104 98.9747 390.618 99.1293C386.649 100.46 386.353 103.44 386.452 106.203C387.049 122.967 399.701 136.384 409.809 149.771C419.938 163.192 428.075 178.007 433.967 193.755C436.465 200.438 438.559 207.818 436.359 214.604Z" fill="black"/>
</g>
<path id="Vector_27" opacity="0.1" d="M393.098 176.509L267.294 206.763L276.052 243.18L401.855 212.926L393.098 176.509Z" fill="black"/>
<path id="Vector_28" d="M393.098 176.509L267.294 206.763L275.256 239.869L401.059 209.615L393.098 176.509Z" fill="#6C63FF"/>
<path id="Vector_29" d="M349.545 189.448C358.188 182.196 359.316 169.309 352.063 160.666C344.81 152.022 331.924 150.895 323.28 158.148C314.637 165.4 313.509 178.287 320.762 186.93C328.015 195.574 340.901 196.701 349.545 189.448Z" fill="#6C63FF"/>
<path id="Vector_30" d="M256.047 102.166C256.047 102.166 289.308 86.7753 308.459 89.5621C308.459 89.5621 313.059 62.5823 323.542 60.0615C334.024 57.5406 346.761 95.1358 346.761 95.1358L374.182 147.681C374.182 147.681 469.141 250.516 417.877 329.376C366.614 408.236 244.984 363.561 234.06 318.138C223.137 272.714 221.414 173.331 221.414 173.331C221.414 173.331 223.892 91.418 229.2 82.7491C234.508 74.0803 256.047 102.166 256.047 102.166Z" fill="#FFD180"/>
<g id="Group_3" opacity="0.1">
<path id="Vector_31" opacity="0.1" d="M414.332 207.103C403.512 185.68 390.021 165.714 374.182 147.681L378.513 155.978C392.294 171.653 404.307 188.798 414.332 207.103V207.103Z" fill="white"/>
<path id="Vector_32" opacity="0.1" d="M238.057 307.22C227.134 261.796 225.744 181.628 225.744 181.628C225.744 181.628 228.223 99.7155 233.53 91.0468C238.838 82.3779 260.377 110.464 260.377 110.464C260.377 110.464 293.638 95.0728 312.789 97.8597C312.789 97.8597 317.39 70.8799 327.872 68.3591C331.94 67.3806 336.346 72.4526 340.218 79.0173C335.595 69.1655 329.238 58.6918 323.541 60.0616C313.059 62.5823 308.459 89.5622 308.459 89.5622C289.308 86.7753 256.047 102.166 256.047 102.166C256.047 102.166 234.508 74.0803 229.2 82.7492C223.892 91.4179 221.414 173.331 221.414 173.331C221.414 173.331 222.804 253.499 233.727 298.923C234.714 303.026 238.371 308.523 238.057 307.22Z" fill="white"/>
</g>
<path id="cat-eye2" d="M343.507 152.434C346.548 149.883 346.945 145.349 344.393 142.308C341.842 139.267 337.308 138.871 334.267 141.422C331.226 143.974 330.83 148.507 333.381 151.548C335.933 154.589 340.467 154.986 343.507 152.434Z" fill="#58555D"/>
<path id="cat-eye1" d="M263.142 171.761C266.183 169.209 266.58 164.676 264.028 161.635C261.477 158.594 256.943 158.197 253.902 160.749C250.862 163.3 250.465 167.834 253.017 170.875C255.568 173.916 260.102 174.312 263.142 171.761Z" fill="#58555D"/>
<path id="Vector_33" d="M312.615 160.639C311.687 156.779 306.241 154.779 300.452 156.171C294.663 157.564 290.722 161.821 291.65 165.68C292.578 169.54 298.024 171.54 303.813 170.148C309.602 168.756 313.543 164.498 312.615 160.639Z" fill="#58555D"/>
<path id="Vector_34" d="M359.062 140.268L360.64 143.498L390.409 128.954L388.831 125.724L359.062 140.268Z" fill="#58555D"/>
<path id="Vector_35" d="M361.668 151.108L362.585 154.582L398.02 145.226L397.103 141.753L361.668 151.108Z" fill="#58555D"/>
<path id="Vector_36" d="M195.179 161.292L194.662 164.846L232.965 170.419L233.482 166.866L195.179 161.292Z" fill="#58555D"/>
<path id="Vector_37" d="M188.49 181.27L188.789 184.851L235.893 180.916L235.594 177.334L188.49 181.27Z" fill="#58555D"/>
<path id="Vector_38" opacity="0.5" d="M302.609 320.843L305.088 331.152L305.64 331.02L303.16 320.711L302.609 320.843Z" fill="#58555D"/>
<path id="Vector_39" opacity="0.5" d="M311.437 318.72L313.916 329.029L314.468 328.897L311.989 318.588L311.437 318.72Z" fill="#58555D"/>
<path id="Vector_40" opacity="0.5" d="M305.854 316.583L309.325 331.014L309.876 330.881L306.406 316.451L305.854 316.583Z" fill="#58555D"/>
<path id="Vector_41" opacity="0.5" d="M359.462 304.836L361.941 315.145L362.493 315.013L360.014 304.704L359.462 304.836Z" fill="#58555D"/>
<path id="Vector_42" opacity="0.5" d="M368.29 302.713L370.769 313.022L371.321 312.89L368.842 302.58L368.29 302.713Z" fill="#58555D"/>
<path id="Vector_43" opacity="0.5" d="M362.708 300.576L366.178 315.007L366.73 314.874L363.26 300.444L362.708 300.576Z" fill="#58555D"/>
<path id="Vector_44" opacity="0.1" d="M304.177 209.955C295.03 212.161 285.709 213.577 276.319 214.189C246.711 216.092 223.63 208.605 222.793 208.323L222.65 202.387C222.846 202.452 247.754 209.81 276.205 207.929C302.392 206.198 345.347 194.496 383.494 159.66L387.711 164.278C360.024 189.562 328.007 204.225 304.177 209.955Z" fill="black"/>
<path id="Vector_45" d="M306.318 213.375L306.021 213.194C306.39 212.745 306.649 212.217 306.78 211.652C306.91 211.086 306.908 210.498 306.774 209.933C306.64 209.369 306.377 208.843 306.005 208.396C305.634 207.95 305.164 207.596 304.633 207.361L304.781 207.047C305.356 207.302 305.865 207.686 306.268 208.169C306.672 208.652 306.959 209.221 307.107 209.833C307.256 210.444 307.262 211.082 307.125 211.696C306.988 212.31 306.712 212.885 306.318 213.375Z" fill="#4D8AF0"/>
<path id="Vector_46" opacity="0.1" d="M306.318 213.375L306.021 213.194C306.39 212.745 306.649 212.217 306.78 211.652C306.91 211.086 306.908 210.498 306.774 209.933C306.64 209.369 306.377 208.843 306.005 208.396C305.634 207.95 305.164 207.596 304.633 207.361L304.781 207.047C305.356 207.302 305.865 207.686 306.268 208.169C306.672 208.652 306.959 209.221 307.107 209.833C307.256 210.444 307.262 211.082 307.125 211.696C306.988 212.31 306.712 212.885 306.318 213.375Z" fill="black"/>
<path id="Vector_47" d="M383.169 158.309C345.022 193.145 302.067 204.846 275.88 206.578C247.429 208.459 222.521 201.101 222.325 201.035L220.33 206.962C221.167 207.244 246.386 214.741 275.994 212.838C285.384 212.226 294.705 210.81 303.853 208.604C327.682 202.873 359.699 188.21 387.386 162.926L383.169 158.309ZM304.87 207.88C304.736 207.912 304.596 207.904 304.467 207.856C304.338 207.809 304.226 207.724 304.145 207.613C304.064 207.502 304.018 207.369 304.013 207.232C304.008 207.095 304.043 206.959 304.115 206.842C304.186 206.724 304.291 206.631 304.416 206.574C304.541 206.516 304.68 206.497 304.816 206.518C304.951 206.54 305.078 206.601 305.179 206.694C305.28 206.787 305.351 206.908 305.383 207.042C305.404 207.131 305.408 207.223 305.394 207.313C305.379 207.403 305.347 207.489 305.3 207.567C305.252 207.645 305.19 207.713 305.116 207.766C305.042 207.82 304.958 207.859 304.87 207.88Z" fill="#F55F44"/>
<path id="Vector_48" opacity="0.1" d="M300.389 218.963C300.819 220.754 301.944 222.301 303.516 223.264C305.088 224.226 306.977 224.525 308.769 224.094V224.094C310.561 223.663 312.108 222.538 313.07 220.966C314.032 219.395 314.331 217.505 313.9 215.713V215.713C313.469 213.922 312.344 212.374 310.772 211.412C309.201 210.45 307.311 210.151 305.52 210.582V210.582C303.728 211.013 302.181 212.138 301.218 213.71C300.256 215.281 299.958 217.171 300.389 218.963V218.963ZM306.332 213.96C306.109 214.014 305.876 214 305.661 213.921C305.446 213.842 305.259 213.7 305.124 213.515C304.99 213.33 304.913 213.109 304.904 212.88C304.895 212.651 304.954 212.425 305.073 212.229C305.193 212.034 305.368 211.879 305.576 211.783C305.784 211.687 306.016 211.655 306.242 211.69C306.468 211.726 306.679 211.828 306.847 211.983C307.015 212.139 307.133 212.341 307.187 212.563C307.259 212.862 307.209 213.177 307.049 213.439C306.888 213.701 306.63 213.888 306.332 213.96L306.332 213.96Z" fill="url(#paint2_linear)"/>
<path id="Vector_49" d="M301.064 218.8C301.452 220.413 302.464 221.805 303.879 222.671C305.293 223.537 306.994 223.806 308.606 223.418C310.219 223.03 311.611 222.018 312.477 220.603C313.343 219.189 313.612 217.488 313.224 215.876V215.876C312.837 214.263 311.824 212.871 310.41 212.005C308.995 211.139 307.295 210.87 305.682 211.258V211.258C304.069 211.646 302.677 212.658 301.811 214.073C300.945 215.487 300.676 217.188 301.064 218.8V218.8ZM306.413 214.298C306.213 214.346 306.002 214.334 305.809 214.263C305.616 214.191 305.448 214.064 305.326 213.898C305.205 213.731 305.136 213.532 305.128 213.326C305.12 213.12 305.173 212.916 305.281 212.74C305.388 212.565 305.546 212.425 305.733 212.338C305.92 212.252 306.128 212.223 306.332 212.255C306.536 212.287 306.725 212.379 306.877 212.519C307.028 212.659 307.135 212.841 307.183 213.041C307.215 213.174 307.22 213.312 307.199 213.447C307.178 213.582 307.13 213.712 307.058 213.829C306.987 213.946 306.893 214.047 306.782 214.128C306.672 214.208 306.546 214.266 306.413 214.298V214.298Z" fill="#4D8AF0"/>
<path id="Vector_50" d="M306.079 213.433C305.505 213.175 304.997 212.789 304.596 212.304C304.195 211.819 303.911 211.249 303.765 210.637C303.619 210.025 303.616 209.387 303.755 208.774C303.895 208.16 304.174 207.587 304.57 207.098L304.844 207.311C304.478 207.761 304.221 208.29 304.093 208.856C303.965 209.423 303.97 210.011 304.107 210.575C304.244 211.139 304.51 211.664 304.883 212.108C305.257 212.552 305.728 212.904 306.26 213.136L306.079 213.433Z" fill="#4D8AF0"/>
<path id="Vector_51" d="M374.71 162.499C294.867 239.586 229.087 201.807 229.087 201.807L374.71 162.499Z" fill="#FFD180"/>
</g>
<g id="box-front-walls">
<path id="Vector_52" d="M108.99 228.837V522.787L320.86 577.137L323.72 285.407L108.99 228.837Z" fill="#E0E0E0"/>
<path id="Vector_53" d="M532.73 521.677L320.86 577.137V285.407L532.73 228.837V521.677Z" fill="#E0E0E0"/>
<path id="Vector_54" opacity="0.07" d="M532.73 521.677L320.86 577.137V285.407L532.73 228.837V521.677Z" fill="black"/>
<path id="Vector_55" opacity="0.1" d="M106.22 381.357L224.91 411.307L320.31 333.657V285.957L108.44 232.717L106.22 381.357Z" fill="black"/>
<path id="Vector_56" opacity="0.1" d="M534.39 382.357L415.7 412.307L320.31 334.657V286.957L532.17 233.717L534.39 382.357Z" fill="black"/>
</g>
<g id="box-front-closing">
<path id="Vector_57" d="M108.99 228.837L0.290039 318.687L212.15 371.927L320.86 285.407L108.99 228.837Z" fill="#E0E0E0"/>
<path id="Vector_58" d="M532.73 228.837L642.54 318.687L431.78 371.927L320.86 285.407L532.73 228.837Z" fill="#E0E0E0"/>
<path id="Vector_59" opacity="0.07" d="M532.73 229.837L642.54 319.687L431.78 372.927L320.86 286.407L532.73 229.837Z" fill="black"/>
</g>
<g id="paws">
<g id="paw2">
<path id="Vector_60" opacity="0.1" d="M307.511 264.079C307.511 264.079 344.513 311.072 313.697 323.244C282.881 335.416 285.713 283.167 285.713 283.167C285.713 283.167 279.04 269.457 271.074 270.509" fill="black"/>
<path id="Vector_61" d="M304.297 263.292C304.297 263.292 341.299 310.285 310.483 322.457C279.667 334.629 282.499 282.379 282.499 282.379C282.499 282.379 275.826 268.67 267.86 269.721" fill="#FFD180"/>
</g>
<g id="paw1">
<path id="Vector_62" opacity="0.1" d="M336.561 255.737C336.561 255.737 319.811 313.156 352.943 312.924C386.075 312.692 363.914 265.291 363.914 265.291C363.914 265.291 364.977 250.081 372.759 248.078" fill="black"/>
<path id="Vector_63" d="M338.237 252.989C338.237 252.989 321.488 310.408 354.619 310.176C387.751 309.944 365.59 262.543 365.59 262.543C365.59 262.543 366.653 247.333 374.435 245.329" fill="#FFD180"/>
</g>
</g>
</g>
<defs>
<linearGradient id="paint0_linear" x1="699.998" y1="520.772" x2="689.962" y2="407.176" gradientUnits="userSpaceOnUse">
<stop stop-color="#808080" stop-opacity="0.25"/>
<stop offset="0.53514" stop-color="#808080" stop-opacity="0.12"/>
<stop offset="1" stop-color="#808080" stop-opacity="0.1"/>
</linearGradient>
<linearGradient id="paint1_linear" x1="209427" y1="227248" x2="202697" y2="151068" gradientUnits="userSpaceOnUse">
<stop stop-color="#808080" stop-opacity="0.25"/>
<stop offset="0.53514" stop-color="#808080" stop-opacity="0.12"/>
<stop offset="1" stop-color="#808080" stop-opacity="0.1"/>
</linearGradient>
<linearGradient id="paint2_linear" x1="308.769" y1="224.094" x2="305.52" y2="210.582" gradientUnits="userSpaceOnUse">
<stop stop-color="white"/>
<stop offset="1"/>
</linearGradient>
<clipPath id="clip0">
<rect width="752" height="578" fill="white"/>
</clipPath>
</defs>
</svg>
