<svg width="1053" height="838" viewBox="0 0 1053 838" fill="none" xmlns="http://www.w3.org/2000/svg">
<g id="undraw_begin_chat_c6pj 1" clip-path="url(#clip0)">
<path id="Vector" opacity="0.1" d="M857 736.289C849.803 739.951 842.262 743.113 834.823 746.266C807.339 757.718 779.44 769.271 749.915 773.202C694.502 780.574 637.27 760.612 582.797 773.032C537.159 783.427 499.415 815.281 454.828 829.468C434.097 836.062 412.526 838.646 390.763 838.646H387.913C385.217 838.612 382.542 838.546 379.887 838.446C357.821 837.628 335.664 834.406 314.033 830.286C245.732 817.317 176.219 793.543 124 749.777C276.046 722.323 589.246 680.233 857 736.289Z" fill="#252223"/>
<g id="speach-bulb">
<path id="Vector_2" d="M513.622 18.5C408.135 18.5 322.622 75.3158 322.622 145.402C322.622 176.696 339.681 205.338 367.944 227.464V319.568L428.49 259.022C455.98 267.949 484.718 272.433 513.622 272.303C619.108 272.303 704.622 215.488 704.622 145.402C704.622 75.3158 619.108 18.5 513.622 18.5Z" fill="#F2F2F2"/>
<path id="Vector_3" d="M527.122 0.5C421.635 0.5 336.122 57.3158 336.122 127.402C336.122 158.696 353.181 187.338 381.444 209.464V301.568L441.99 241.022C469.48 249.949 498.218 254.433 527.122 254.303C632.608 254.303 718.122 197.488 718.122 127.402C718.122 57.3158 632.608 0.5 527.122 0.5Z" stroke="#3F3D56" stroke-miterlimit="10"/>
<path id="Vector_4" opacity="0.8" d="M527.122 203.034C555.84 203.034 579.122 179.753 579.122 151.034C579.122 122.315 555.84 99.0339 527.122 99.0339C498.403 99.0339 475.122 122.315 475.122 151.034C475.122 179.753 498.403 203.034 527.122 203.034Z" fill="#FFBB3D"/>
<path id="Vector_5" d="M514.416 137.972C517.17 137.972 519.403 135.048 519.403 131.441C519.403 127.834 517.17 124.91 514.416 124.91C511.661 124.91 509.429 127.834 509.429 131.441C509.429 135.048 511.661 137.972 514.416 137.972Z" fill="#444053"/>
<path id="Vector_6" d="M540.184 137.972C542.938 137.972 545.171 135.048 545.171 131.441C545.171 127.834 542.938 124.91 540.184 124.91C537.429 124.91 535.196 127.834 535.196 131.441C535.196 135.048 537.429 137.972 540.184 137.972Z" fill="#444053"/>
<path id="Vector_7" d="M558.292 151.984C558.292 161.362 542.63 177.158 526.825 177.158C511.02 177.158 495.951 161.006 495.951 151.628C495.951 142.249 510.693 150.826 526.498 150.826C542.303 150.826 558.292 142.606 558.292 151.984Z" fill="#3F3D56"/>
<path id="Vector_8" d="M500.932 153.587C500.932 153.587 529.342 159.91 553.21 153.765C553.21 153.765 556.13 153.765 554.135 157.142C553.614 158.018 552.855 158.728 551.946 159.189C547.346 161.539 530.317 168.487 503.086 159.626C502.244 159.361 501.481 158.891 500.864 158.259C500.247 157.627 499.796 156.853 499.551 156.005C499.231 154.845 499.369 153.747 500.932 153.587Z" fill="#F6F8FB"/>
</g>
<g id="girl">
<path id="Vector_9" d="M453.132 327.51C453.132 327.51 449.29 275.77 451.099 266.306C452.908 256.843 454.607 229.906 444.661 238.761C434.715 247.616 438.249 267.706 438.249 267.706C438.249 267.706 428.811 322.388 437.54 329.806C446.269 337.225 453.132 327.51 453.132 327.51Z" fill="#FBBEBE"/>
<path id="Vector_10" d="M460.295 378.677C460.295 378.677 430.691 352.274 432.291 329.871C432.291 329.871 449.893 316.27 453.894 323.47C457.894 330.671 486.973 358.763 482.035 368.32C477.097 377.877 460.295 378.677 460.295 378.677Z" fill="#3F7DCE"/>
<path id="Vector_11" d="M565.107 331.471C565.107 331.471 582.71 282.665 583.51 273.064C584.31 263.463 589.91 237.06 597.111 248.261C604.312 259.463 595.511 277.865 595.511 277.865C595.511 277.865 589.91 333.072 579.509 337.872C569.108 342.673 565.107 331.471 565.107 331.471Z" fill="#FBBEBE"/>
<path id="Vector_12" d="M517.102 576.301H564.307L566.708 600.304L555.506 602.704C555.506 602.704 529.103 594.703 513.901 597.104C498.699 599.504 517.102 576.301 517.102 576.301Z" fill="#FBBEBE"/>
<path id="Vector_13" d="M548.305 573.101C548.305 573.101 570.708 557.899 574.709 570.7C578.709 583.502 593.111 629.908 588.31 634.708C583.51 639.509 577.909 630.708 577.909 630.708C577.909 630.708 568.308 610.705 561.107 609.905C553.906 609.105 549.906 602.704 549.906 602.704C549.906 602.704 570.708 586.702 548.305 573.101Z" fill="#2F2E41"/>
<path id="Vector_14" d="M505.1 697.116C505.1 697.116 513.901 733.12 512.301 738.721C510.701 744.321 537.904 741.121 537.904 741.121L539.504 730.72C539.504 730.72 523.502 705.116 523.502 693.915C523.502 682.714 505.1 697.116 505.1 697.116Z" fill="#FBBEBE"/>
<path id="Vector_15" d="M537.904 723.519C537.904 723.519 559.507 739.521 548.305 747.522C537.104 755.523 495.499 776.325 495.499 776.325C495.499 776.325 480.297 778.725 491.498 765.124C502.7 751.522 505.9 749.122 506.7 741.921C507.396 737.126 509.075 732.527 511.634 728.413C511.634 728.413 522.702 750.722 537.904 723.519Z" fill="#2F2E41"/>
<path id="Vector_16" d="M472.296 531.496C472.296 531.496 463.495 614.706 477.097 641.109C490.698 667.512 506.7 703.516 505.9 705.117C505.1 706.717 529.103 702.716 529.103 695.515C529.103 688.315 502.7 616.306 502.7 616.306C502.7 616.306 513.901 522.695 522.702 516.294C531.503 509.893 472.296 531.496 472.296 531.496Z" fill="#2F2E41"/>
<path id="Vector_17" opacity="0.1" d="M472.296 531.496C472.296 531.496 463.495 614.706 477.097 641.109C490.698 667.512 506.7 703.516 505.9 705.117C505.1 706.717 529.103 702.716 529.103 695.515C529.103 688.315 502.7 616.306 502.7 616.306C502.7 616.306 513.901 522.695 522.702 516.294C531.503 509.893 472.296 531.496 472.296 531.496Z" fill="black"/>
<path id="Vector_18" d="M490.38 296.667C484.661 297.703 478.995 300.845 476.151 306.211C473.498 311.216 473.329 317.907 469.108 321.502C466.588 323.647 463.168 324.144 460.355 325.829C458.356 327.108 456.73 328.891 455.641 331C454.552 333.108 454.039 335.467 454.153 337.837C454.379 342.251 456.707 346.363 456.657 350.783C456.593 356.53 452.619 361.275 448.882 365.435L461.277 367.735C463.15 368.236 465.115 368.288 467.011 367.887C469.152 367.253 470.891 365.49 473.056 364.953C476.159 364.182 479.23 366.07 481.999 367.745C489.882 372.513 498.334 376.111 506.755 379.694C509.233 380.748 512.042 381.803 514.486 380.666C516.461 379.748 517.689 377.601 519.546 376.44C522.871 374.36 527.047 375.925 530.784 376.952C539.236 379.246 548.226 378.48 556.168 374.791C554.455 372.791 552.211 371.392 550.367 369.53C548.522 367.668 547.029 365.032 547.516 362.38C548.014 359.675 550.339 357.87 551.923 355.687C553.094 353.958 553.908 352.013 554.319 349.966C554.73 347.919 554.729 345.81 554.316 343.763C553.484 339.692 551.503 335.943 548.608 332.962C546.956 331.415 545.397 329.771 543.94 328.039C541.023 324.101 540.302 318.888 539.369 313.978C538.436 309.069 536.963 303.844 533.176 300.854C527.144 296.092 517.347 297.715 510.295 297.243C503.571 296.792 497.088 296.667 490.38 296.667Z" fill="#2F2E41"/>
<path id="Vector_19" d="M450.694 474.689L465.895 512.293C465.895 512.293 396.287 588.302 435.492 598.704C474.696 609.105 488.298 590.703 513.101 605.104C513.101 605.104 525.103 586.702 523.502 575.501C523.502 575.501 489.098 569.1 470.696 569.9C470.696 569.9 520.302 526.695 525.103 525.095C529.903 523.495 545.905 497.891 521.102 477.089C496.299 456.286 502.7 445.085 502.7 445.085L450.694 474.689Z" fill="#2F2E41"/>
<path id="Vector_20" d="M486.698 344.273C486.698 344.273 489.098 369.076 478.697 372.276C468.296 375.477 519.502 374.677 519.502 374.677C519.502 374.677 507.5 367.476 513.101 352.274C518.702 337.072 486.698 344.273 486.698 344.273Z" fill="#FBBEBE"/>
<path id="Vector_21" opacity="0.1" d="M486.698 344.273C486.698 344.273 489.098 369.076 478.697 372.276C468.296 375.477 519.502 374.677 519.502 374.677C519.502 374.677 507.5 367.476 513.101 352.274C518.702 337.072 486.698 344.273 486.698 344.273Z" fill="black"/>
<path id="Vector_22" d="M541.105 387.478C541.105 387.478 536.304 362.675 526.703 364.275C517.102 365.876 497.899 367.476 495.499 369.076C493.099 370.676 480.297 373.955 480.297 373.955C480.297 373.955 485.098 368.276 480.297 367.476C475.497 366.676 460.295 370.676 458.695 373.877C457.094 377.077 450.694 383.478 450.694 394.679C450.694 405.88 445.893 425.083 447.493 433.084C449.093 441.085 446.693 459.487 441.892 469.888C437.092 480.289 441.092 490.691 449.093 480.289C457.094 469.888 453.094 480.289 459.495 481.09C465.895 481.89 494.699 452.286 502.7 459.487C510.701 466.688 518.702 471.488 520.302 467.488C521.902 463.487 513.901 456.287 513.901 453.086C513.901 449.886 501.1 463.487 514.701 435.484C528.303 407.481 515.501 399.48 541.105 387.478Z" fill="#3F7DCE"/>
<path id="Vector_23" d="M534.704 385.878L541.105 387.478C541.105 387.478 564.307 370.676 570.708 358.675C577.109 346.673 581.909 337.072 581.909 337.072C581.909 337.072 571.508 324.27 565.107 329.071C558.707 333.872 529.903 366.676 529.903 366.676L534.704 385.878Z" fill="#3F7DCE"/>
<path id="Vector_24" d="M505.1 361.075C518.798 361.075 529.903 349.97 529.903 336.272C529.903 322.574 518.798 311.469 505.1 311.469C491.402 311.469 480.297 322.574 480.297 336.272C480.297 349.97 491.402 361.075 505.1 361.075Z" fill="#FBBEBE"/>
<path id="Vector_25" d="M483.159 329.087C487.397 325.571 492.81 323.791 498.308 324.105C507.815 324.69 516.185 331.465 525.708 331.676C525.326 329.617 525.613 327.49 526.527 325.606C527.265 324.092 528.431 322.626 528.274 320.949C528.013 319.619 527.284 318.425 526.22 317.585C520.715 312.365 513.104 309.675 505.525 309.344C500.444 309.122 490.746 309.242 486.805 313.09C483.434 316.381 483.826 324.82 483.159 329.087Z" fill="#2F2E41"/>
</g>
<g id="plant22">
<path id="Vector_26" d="M750.424 744.341C750.424 744.341 725.754 660.581 755.054 598.961C767.354 573.091 771.434 544.041 765.754 515.961C763.038 502.629 759.105 489.575 754.004 476.961" stroke="#535461" stroke-width="2" stroke-miterlimit="10"/>
<path id="Vector_27" d="M772.194 438.021C772.194 448.291 753.604 478.021 753.604 478.021C753.604 478.021 735.014 448.251 735.014 438.021C734.957 435.544 735.395 433.081 736.303 430.776C737.212 428.471 738.571 426.37 740.303 424.598C742.034 422.826 744.102 421.418 746.386 420.457C748.669 419.495 751.122 419 753.599 419C756.077 419 758.529 419.495 760.813 420.457C763.096 421.418 765.165 422.826 766.896 424.598C768.628 426.37 769.987 428.471 770.895 430.776C771.804 433.081 772.242 435.544 772.184 438.021H772.194Z" fill="#3F7DCE"/>
<path id="Vector_28" d="M802.954 494.881C797.374 503.501 765.594 518.381 765.594 518.381C765.594 518.381 766.174 483.291 771.754 474.671C774.491 470.668 778.684 467.892 783.439 466.937C788.193 465.982 793.133 466.923 797.204 469.558C801.275 472.194 804.154 476.316 805.229 481.045C806.303 485.774 805.487 490.735 802.954 494.871V494.881Z" fill="#3F7DCE"/>
<path id="Vector_29" d="M801.604 592.051C792.434 596.671 757.494 593.481 757.494 593.481C757.494 593.481 775.704 563.481 784.874 558.861C787.059 557.704 789.453 556.994 791.916 556.773C794.378 556.553 796.86 556.825 799.216 557.576C801.572 558.326 803.754 559.539 805.636 561.143C807.517 562.747 809.06 564.71 810.173 566.918C811.287 569.125 811.949 571.533 812.12 573.999C812.292 576.466 811.97 578.941 811.173 581.282C810.376 583.622 809.12 585.78 807.479 587.629C805.837 589.479 803.844 590.982 801.614 592.051H801.604Z" fill="#3F7DCE"/>
<path id="Vector_30" d="M784.034 665.341C775.784 671.441 740.794 674.201 740.794 674.201C740.794 674.201 753.674 641.561 761.924 635.451C763.885 633.976 766.119 632.904 768.496 632.297C770.874 631.689 773.348 631.558 775.776 631.912C778.204 632.265 780.538 633.096 782.644 634.355C784.75 635.615 786.585 637.28 788.044 639.252C789.503 641.225 790.558 643.467 791.146 645.849C791.735 648.232 791.846 650.707 791.473 653.132C791.1 655.557 790.251 657.885 788.974 659.98C787.698 662.076 786.019 663.898 784.034 665.341V665.341Z" fill="#3F7DCE"/>
<path id="Vector_31" d="M726.564 520.371C733.924 527.521 768.194 534.961 768.194 534.961C768.194 534.961 759.794 500.891 752.434 493.731C748.873 490.433 744.164 488.658 739.312 488.787C734.46 488.915 729.851 490.935 726.469 494.416C723.087 497.898 721.2 502.564 721.213 507.417C721.225 512.271 723.135 516.927 726.534 520.391L726.564 520.371Z" fill="#3F7DCE"/>
<path id="Vector_32" d="M707.104 606.341C716.274 610.961 751.214 607.771 751.214 607.771C751.214 607.771 733.004 577.771 723.834 573.151C721.65 571.994 719.256 571.284 716.793 571.063C714.331 570.843 711.849 571.116 709.493 571.866C707.137 572.616 704.954 573.829 703.073 575.433C701.191 577.037 699.649 579 698.535 581.208C697.422 583.415 696.76 585.823 696.589 588.289C696.417 590.756 696.739 593.231 697.536 595.572C698.333 597.912 699.589 600.07 701.23 601.92C702.871 603.769 704.865 605.272 707.094 606.341H707.104Z" fill="#3F7DCE"/>
<path id="Vector_33" d="M699.654 692.501C707.904 698.601 742.894 701.361 742.894 701.361C742.894 701.361 730.014 668.721 721.764 662.611C719.803 661.136 717.57 660.064 715.192 659.456C712.815 658.849 710.341 658.718 707.913 659.071C705.485 659.425 703.15 660.255 701.045 661.515C698.939 662.775 697.104 664.44 695.645 666.412C694.185 668.385 693.131 670.627 692.543 673.009C691.954 675.391 691.843 677.867 692.216 680.292C692.589 682.717 693.438 685.045 694.714 687.14C695.991 689.236 697.67 691.058 699.654 692.501V692.501Z" fill="#3F7DCE"/>
<path id="Vector_34" opacity="0.25" d="M772.194 438.021C772.194 448.291 753.604 478.021 753.604 478.021C753.604 478.021 735.014 448.251 735.014 438.021C734.957 435.544 735.395 433.081 736.303 430.776C737.212 428.471 738.571 426.37 740.303 424.598C742.034 422.826 744.102 421.418 746.386 420.457C748.669 419.495 751.122 419 753.599 419C756.077 419 758.529 419.495 760.813 420.457C763.096 421.418 765.165 422.826 766.896 424.598C768.628 426.37 769.987 428.471 770.895 430.776C771.804 433.081 772.242 435.544 772.184 438.021H772.194Z" fill="black"/>
<path id="Vector_35" opacity="0.25" d="M802.954 494.881C797.374 503.501 765.594 518.381 765.594 518.381C765.594 518.381 766.174 483.291 771.754 474.671C774.491 470.668 778.684 467.892 783.439 466.937C788.193 465.982 793.133 466.923 797.204 469.558C801.275 472.194 804.154 476.316 805.229 481.045C806.303 485.774 805.487 490.735 802.954 494.871V494.881Z" fill="black"/>
<path id="Vector_36" opacity="0.25" d="M801.604 592.051C792.434 596.671 757.494 593.481 757.494 593.481C757.494 593.481 775.704 563.481 784.874 558.861C787.059 557.704 789.453 556.994 791.916 556.773C794.378 556.553 796.86 556.825 799.216 557.576C801.572 558.326 803.754 559.539 805.636 561.143C807.517 562.747 809.06 564.71 810.173 566.918C811.287 569.125 811.949 571.533 812.12 573.999C812.292 576.466 811.97 578.941 811.173 581.282C810.376 583.622 809.12 585.78 807.479 587.629C805.837 589.479 803.844 590.982 801.614 592.051H801.604Z" fill="black"/>
<path id="Vector_37" opacity="0.25" d="M784.034 665.341C775.784 671.441 740.794 674.201 740.794 674.201C740.794 674.201 753.674 641.561 761.924 635.451C763.885 633.976 766.119 632.904 768.496 632.297C770.874 631.689 773.348 631.558 775.776 631.912C778.204 632.265 780.538 633.096 782.644 634.355C784.75 635.615 786.585 637.28 788.044 639.252C789.503 641.225 790.558 643.467 791.146 645.849C791.735 648.232 791.846 650.707 791.473 653.132C791.1 655.557 790.251 657.885 788.974 659.98C787.698 662.076 786.019 663.898 784.034 665.341V665.341Z" fill="black"/>
<path id="Vector_38" opacity="0.25" d="M726.564 520.371C733.924 527.521 768.194 534.961 768.194 534.961C768.194 534.961 759.794 500.891 752.434 493.731C748.873 490.433 744.164 488.658 739.312 488.787C734.46 488.915 729.851 490.935 726.469 494.416C723.087 497.898 721.2 502.564 721.213 507.417C721.225 512.271 723.135 516.927 726.534 520.391L726.564 520.371Z" fill="black"/>
<path id="Vector_39" opacity="0.25" d="M707.104 606.341C716.274 610.961 751.214 607.771 751.214 607.771C751.214 607.771 733.004 577.771 723.834 573.151C721.65 571.994 719.256 571.284 716.793 571.063C714.331 570.843 711.849 571.116 709.493 571.866C707.137 572.616 704.954 573.829 703.073 575.433C701.191 577.037 699.649 579 698.535 581.208C697.422 583.415 696.76 585.823 696.589 588.289C696.417 590.756 696.739 593.231 697.536 595.572C698.333 597.912 699.589 600.07 701.23 601.92C702.871 603.769 704.865 605.272 707.094 606.341H707.104Z" fill="black"/>
<path id="Vector_40" opacity="0.25" d="M699.654 692.501C707.904 698.601 742.894 701.361 742.894 701.361C742.894 701.361 730.014 668.721 721.764 662.611C719.803 661.136 717.57 660.064 715.192 659.456C712.815 658.849 710.341 658.718 707.913 659.071C705.485 659.425 703.15 660.255 701.045 661.515C698.939 662.775 697.104 664.44 695.645 666.412C694.185 668.385 693.131 670.627 692.543 673.009C691.954 675.391 691.843 677.867 692.216 680.292C692.589 682.717 693.438 685.045 694.714 687.14C695.991 689.236 697.67 691.058 699.654 692.501V692.501Z" fill="black"/>
</g>
<g id="plant21">
<path id="Vector_41" d="M182.186 763.341C182.186 763.341 157.516 679.591 186.816 617.931C199.116 592.061 203.196 563.011 197.516 534.931C194.8 521.599 190.867 508.545 185.766 495.931" stroke="#535461" stroke-width="2" stroke-miterlimit="10"/>
<path id="Vector_42" d="M203.996 457.021C203.996 467.291 185.406 497.021 185.406 497.021C185.406 497.021 166.816 467.251 166.816 457.021C166.758 454.544 167.197 452.081 168.105 449.776C169.013 447.471 170.373 445.37 172.104 443.598C173.836 441.826 175.904 440.418 178.187 439.457C180.471 438.495 182.923 438 185.401 438C187.878 438 190.331 438.495 192.614 439.457C194.898 440.418 196.966 441.826 198.697 443.598C200.429 445.37 201.789 447.471 202.697 449.776C203.605 452.081 204.043 454.544 203.986 457.021H203.996Z" fill="#3F7DCE"/>
<path id="Vector_43" d="M234.716 513.881C229.136 522.501 197.356 537.381 197.356 537.381C197.356 537.381 197.936 502.291 203.516 493.671C204.811 491.556 206.517 489.721 208.532 488.275C210.548 486.829 212.832 485.801 215.251 485.251C217.67 484.701 220.175 484.642 222.617 485.075C225.059 485.508 227.39 486.426 229.473 487.774C231.555 489.122 233.346 490.874 234.741 492.925C236.136 494.976 237.107 497.285 237.595 499.717C238.084 502.149 238.081 504.655 237.586 507.085C237.092 509.516 236.116 511.823 234.716 513.871V513.881Z" fill="#3F7DCE"/>
<path id="Vector_44" d="M233.376 611.051C224.206 615.671 189.266 612.481 189.266 612.481C189.266 612.481 207.476 582.481 216.646 577.861C221.033 575.757 226.071 575.457 230.678 577.025C235.284 578.594 239.092 581.906 241.283 586.251C243.475 590.596 243.875 595.627 242.398 600.264C240.922 604.901 237.686 608.774 233.386 611.051H233.376Z" fill="#3F7DCE"/>
<path id="Vector_45" d="M215.806 684.341C207.556 690.441 172.566 693.201 172.566 693.201C172.566 693.201 185.446 660.561 193.696 654.451C197.662 651.566 202.608 650.365 207.456 651.11C212.303 651.855 216.66 654.486 219.577 658.429C222.494 662.372 223.734 667.308 223.028 672.162C222.321 677.015 219.725 681.393 215.806 684.341V684.341Z" fill="#3F7DCE"/>
<path id="Vector_46" d="M158.326 539.371C165.686 546.521 199.996 553.931 199.996 553.931C199.996 553.931 191.596 519.861 184.236 512.701C180.675 509.403 175.965 507.629 171.113 507.757C166.261 507.885 161.652 509.905 158.27 513.387C154.888 516.868 153.002 521.534 153.014 526.387C153.026 531.241 154.936 535.897 158.336 539.361L158.326 539.371Z" fill="#3F7DCE"/>
<path id="Vector_47" d="M138.906 625.341C148.076 629.961 183.016 626.771 183.016 626.771C183.016 626.771 164.806 596.771 155.636 592.151C151.252 590.079 146.232 589.801 141.646 591.378C137.061 592.954 133.273 596.26 131.09 600.59C128.907 604.92 128.503 609.931 129.963 614.555C131.423 619.179 134.632 623.05 138.906 625.341V625.341Z" fill="#3F7DCE"/>
<path id="Vector_48" d="M131.416 711.501C139.666 717.601 174.656 720.361 174.656 720.361C174.656 720.361 161.776 687.721 153.526 681.591C149.559 678.706 144.614 677.505 139.766 678.25C134.918 678.995 130.561 681.626 127.645 685.569C124.728 689.512 123.488 694.448 124.194 699.302C124.9 704.155 127.496 708.533 131.416 711.481V711.501Z" fill="#3F7DCE"/>
<path id="Vector_49" opacity="0.25" d="M203.996 457.021C203.996 467.291 185.406 497.021 185.406 497.021C185.406 497.021 166.816 467.251 166.816 457.021C166.758 454.544 167.197 452.081 168.105 449.776C169.013 447.471 170.373 445.37 172.104 443.598C173.836 441.826 175.904 440.418 178.187 439.457C180.471 438.495 182.923 438 185.401 438C187.878 438 190.331 438.495 192.614 439.457C194.898 440.418 196.966 441.826 198.697 443.598C200.429 445.37 201.789 447.471 202.697 449.776C203.605 452.081 204.043 454.544 203.986 457.021H203.996Z" fill="black"/>
<path id="Vector_50" opacity="0.25" d="M234.716 513.881C229.136 522.501 197.356 537.381 197.356 537.381C197.356 537.381 197.936 502.291 203.516 493.671C204.811 491.556 206.517 489.721 208.532 488.275C210.548 486.829 212.832 485.801 215.251 485.251C217.67 484.701 220.175 484.642 222.617 485.075C225.059 485.508 227.39 486.426 229.473 487.774C231.555 489.122 233.346 490.874 234.741 492.925C236.136 494.976 237.107 497.285 237.595 499.717C238.084 502.149 238.081 504.655 237.586 507.085C237.092 509.516 236.116 511.823 234.716 513.871V513.881Z" fill="black"/>
<path id="Vector_51" opacity="0.25" d="M233.376 611.051C224.206 615.671 189.266 612.481 189.266 612.481C189.266 612.481 207.476 582.481 216.646 577.861C221.033 575.757 226.071 575.457 230.678 577.025C235.284 578.594 239.092 581.906 241.283 586.251C243.475 590.596 243.875 595.627 242.398 600.264C240.922 604.901 237.686 608.774 233.386 611.051H233.376Z" fill="black"/>
<path id="Vector_52" opacity="0.25" d="M215.806 684.341C207.556 690.441 172.566 693.201 172.566 693.201C172.566 693.201 185.446 660.561 193.696 654.451C197.662 651.566 202.608 650.365 207.456 651.11C212.303 651.855 216.66 654.486 219.577 658.429C222.494 662.372 223.734 667.308 223.028 672.162C222.321 677.015 219.725 681.393 215.806 684.341V684.341Z" fill="black"/>
<path id="Vector_53" opacity="0.25" d="M158.326 539.371C165.686 546.521 199.996 553.931 199.996 553.931C199.996 553.931 191.596 519.861 184.236 512.701C180.675 509.403 175.965 507.629 171.113 507.757C166.261 507.885 161.652 509.905 158.27 513.387C154.888 516.868 153.002 521.534 153.014 526.387C153.026 531.241 154.936 535.897 158.336 539.361L158.326 539.371Z" fill="black"/>
<path id="Vector_54" opacity="0.25" d="M138.906 625.341C148.076 629.961 183.016 626.771 183.016 626.771C183.016 626.771 164.806 596.771 155.636 592.151C151.252 590.079 146.232 589.801 141.646 591.378C137.061 592.954 133.273 596.26 131.09 600.59C128.907 604.92 128.503 609.931 129.963 614.555C131.423 619.179 134.632 623.05 138.906 625.341V625.341Z" fill="black"/>
<path id="Vector_55" opacity="0.25" d="M131.416 711.501C139.666 717.601 174.656 720.361 174.656 720.361C174.656 720.361 161.776 687.721 153.526 681.591C149.559 678.706 144.614 677.505 139.766 678.25C134.918 678.995 130.561 681.626 127.645 685.569C124.728 689.512 123.488 694.448 124.194 699.302C124.9 704.155 127.496 708.533 131.416 711.481V711.501Z" fill="black"/>
</g>
<g id="plant23">
<path id="Vector_56" d="M283.592 739.925C283.592 739.925 270.232 694.575 286.092 661.205C292.833 647.249 294.864 631.484 291.882 616.275C290.411 609.066 288.282 602.006 285.522 595.185" stroke="#535461" stroke-width="2" stroke-miterlimit="10"/>
<path id="Vector_57" d="M295.392 574.065C295.392 579.625 285.332 595.735 285.332 595.735C285.332 595.735 275.272 579.645 275.272 574.065C275.272 572.743 275.533 571.434 276.038 570.213C276.544 568.992 277.286 567.883 278.22 566.948C279.155 566.013 280.264 565.272 281.486 564.766C282.707 564.26 284.015 564 285.337 564C286.659 564 287.968 564.26 289.189 564.766C290.41 565.272 291.52 566.013 292.454 566.948C293.389 567.883 294.13 568.992 294.636 570.213C295.142 571.434 295.402 572.743 295.402 574.065H295.392Z" fill="#6C63FF"/>
<path id="Vector_58" d="M312.032 604.875C309.032 609.535 291.802 617.595 291.802 617.595C291.802 617.595 292.112 598.595 295.132 593.935C296.583 591.695 298.864 590.124 301.474 589.566C304.083 589.008 306.807 589.509 309.047 590.96C311.287 592.411 312.859 594.692 313.417 597.301C313.975 599.911 313.473 602.635 312.022 604.875H312.032Z" fill="#6C63FF"/>
<path id="Vector_59" d="M311.302 657.475C306.302 659.975 287.422 658.245 287.422 658.245C287.422 658.245 297.282 642.005 302.242 639.505C304.629 638.304 307.396 638.1 309.933 638.938C312.47 639.776 314.571 641.588 315.772 643.975C316.974 646.362 317.178 649.129 316.339 651.666C315.501 654.203 313.689 656.304 311.302 657.505V657.475Z" fill="#6C63FF"/>
<path id="Vector_60" d="M301.792 697.155C297.322 700.455 278.382 701.955 278.382 701.955C278.382 701.955 285.382 684.285 289.822 680.955C291.968 679.364 294.658 678.69 297.3 679.082C299.942 679.474 302.321 680.899 303.912 683.045C305.504 685.191 306.177 687.881 305.785 690.523C305.393 693.165 303.968 695.544 301.822 697.135L301.792 697.155Z" fill="#6C63FF"/>
<path id="Vector_61" d="M270.652 618.675C274.652 622.545 293.212 626.555 293.212 626.555C293.212 626.555 288.652 608.065 284.652 604.235C282.722 602.463 280.176 601.514 277.556 601.59C274.937 601.666 272.451 602.762 270.626 604.643C268.802 606.525 267.784 609.044 267.789 611.664C267.794 614.285 268.821 616.8 270.652 618.675V618.675Z" fill="#6C63FF"/>
<path id="Vector_62" d="M260.142 665.215C265.142 667.715 284.022 665.985 284.022 665.985C284.022 665.985 274.162 649.745 269.202 647.245C266.815 646.044 264.049 645.84 261.511 646.678C258.974 647.516 256.874 649.328 255.672 651.715C254.471 654.102 254.267 656.868 255.105 659.406C255.943 661.943 257.755 664.044 260.142 665.245V665.215Z" fill="#6C63FF"/>
<path id="Vector_63" d="M256.102 711.865C260.572 715.165 279.512 716.665 279.512 716.665C279.512 716.665 272.512 698.995 268.072 695.665C267.01 694.877 265.803 694.306 264.52 693.985C263.237 693.663 261.903 693.598 260.594 693.792C257.952 694.184 255.574 695.609 253.982 697.755C252.391 699.901 251.717 702.59 252.109 705.233C252.501 707.875 253.927 710.254 256.072 711.845L256.102 711.865Z" fill="#6C63FF"/>
<path id="Vector_64" opacity="0.5" d="M295.392 574.065C295.392 579.625 285.332 595.735 285.332 595.735C285.332 595.735 275.272 579.645 275.272 574.065C275.272 572.743 275.533 571.434 276.038 570.213C276.544 568.992 277.286 567.883 278.22 566.948C279.155 566.013 280.264 565.272 281.486 564.766C282.707 564.26 284.015 564 285.337 564C286.659 564 287.968 564.26 289.189 564.766C290.41 565.272 291.52 566.013 292.454 566.948C293.389 567.883 294.13 568.992 294.636 570.213C295.142 571.434 295.402 572.743 295.402 574.065H295.392Z" fill="white"/>
<path id="Vector_65" opacity="0.5" d="M312.032 604.875C309.032 609.535 291.802 617.595 291.802 617.595C291.802 617.595 292.112 598.595 295.132 593.935C296.583 591.695 298.864 590.124 301.474 589.566C304.083 589.008 306.807 589.509 309.047 590.96C311.287 592.411 312.859 594.692 313.417 597.301C313.975 599.911 313.473 602.635 312.022 604.875H312.032Z" fill="white"/>
<path id="Vector_66" opacity="0.5" d="M311.302 657.475C306.302 659.975 287.422 658.245 287.422 658.245C287.422 658.245 297.282 642.005 302.242 639.505C304.629 638.304 307.396 638.1 309.933 638.938C312.47 639.776 314.571 641.588 315.772 643.975C316.974 646.362 317.178 649.129 316.339 651.666C315.501 654.203 313.689 656.304 311.302 657.505V657.475Z" fill="white"/>
<path id="Vector_67" opacity="0.5" d="M301.792 697.155C297.322 700.455 278.382 701.955 278.382 701.955C278.382 701.955 285.382 684.285 289.822 680.955C291.968 679.364 294.658 678.69 297.3 679.082C299.942 679.474 302.321 680.899 303.912 683.045C305.504 685.191 306.177 687.881 305.785 690.523C305.393 693.165 303.968 695.544 301.822 697.135L301.792 697.155Z" fill="white"/>
<path id="Vector_68" opacity="0.5" d="M270.652 618.675C274.652 622.545 293.212 626.555 293.212 626.555C293.212 626.555 288.652 608.065 284.652 604.235C282.722 602.463 280.176 601.514 277.556 601.59C274.937 601.666 272.451 602.762 270.626 604.643C268.802 606.525 267.784 609.044 267.789 611.664C267.794 614.285 268.821 616.8 270.652 618.675V618.675Z" fill="white"/>
<path id="Vector_69" opacity="0.5" d="M260.142 665.215C265.142 667.715 284.022 665.985 284.022 665.985C284.022 665.985 274.162 649.745 269.202 647.245C266.815 646.044 264.049 645.84 261.511 646.678C258.974 647.516 256.874 649.328 255.672 651.715C254.471 654.102 254.267 656.868 255.105 659.406C255.943 661.943 257.755 664.044 260.142 665.245V665.215Z" fill="white"/>
<path id="Vector_70" opacity="0.5" d="M256.102 711.865C260.572 715.165 279.512 716.665 279.512 716.665C279.512 716.665 272.512 698.995 268.072 695.665C267.01 694.877 265.803 694.306 264.52 693.985C263.237 693.663 261.903 693.598 260.594 693.792C257.952 694.184 255.574 695.609 253.982 697.755C252.391 699.901 251.717 702.59 252.109 705.233C252.501 707.875 253.927 710.254 256.072 711.845L256.102 711.865Z" fill="white"/>
</g>
</g>
<defs>
<clipPath id="clip0">
<rect width="1053" height="838" fill="white"/>
</clipPath>
</defs>
</svg>
